<?xml version="1.0" encoding="UTF-8"?>
<svg width="48" height="48" viewBox="0 0 48 48" fill="none" xmlns="http://www.w3.org/2000/svg">
  <defs>
    <linearGradient id="gradient" x1="0%" y1="0%" x2="100%" y2="100%">
      <stop offset="0%" stop-color="#3a86ff" />
      <stop offset="100%" stop-color="#2b6cb0" />
    </linearGradient>
  </defs>
  <circle cx="24" cy="24" r="22" fill="url(#gradient)"/>
  <path d="M24 14C19.5817 14 16 17.5817 16 22V25C16 29.4183 19.5817 33 24 33C28.4183 33 32 29.4183 32 25V22C32 17.5817 28.4183 14 24 14Z" fill="white"/>
  <circle cx="20" cy="22" r="1.5" fill="#333"/>
  <circle cx="28" cy="22" r="1.5" fill="#333"/>
  <path d="M21 26C21.5 27 22.6739 28 24 28C25.3261 28 26.5 27 27 26" stroke="#333" stroke-width="1.5" stroke-linecap="round"/>
  <path d="M16 25V27C16 30.3137 18.6863 33 22 33H26C29.3137 33 32 30.3137 32 27V25" stroke="white" stroke-width="2"/>
  <path d="M18 16L15 13M30 16L33 13M24 14V11" stroke="white" stroke-width="2" stroke-linecap="round"/>
</svg> 