<?xml version="1.0" encoding="UTF-8" standalone="no"?>
<svg width="800" height="400" xmlns="http://www.w3.org/2000/svg">
  <defs>
    <linearGradient id="bgGradient" x1="0%" y1="0%" x2="100%" y2="100%">
      <stop offset="0%" style="stop-color:#e67e22;stop-opacity:1" />
      <stop offset="100%" style="stop-color:#d35400;stop-opacity:1" />
    </linearGradient>
  </defs>
  <rect width="800" height="400" fill="url(#bgGradient)" />
  
  <!-- Road -->
  <rect x="150" y="100" width="500" height="180" fill="#444" />
  <rect x="150" y="190" width="500" height="10" fill="#fff" stroke="#fff" stroke-dasharray="20,20" />
  
  <!-- Buildings on left side -->
  <rect x="150" y="100" width="40" height="100" fill="#bbb" />
  <rect x="190" y="100" width="50" height="80" fill="#ccc" />
  <rect x="240" y="100" width="35" height="120" fill="#aaa" />
  <rect x="275" y="100" width="45" height="90" fill="#ddd" />
  <rect x="320" y="100" width="60" height="110" fill="#bbb" />
  <rect x="380" y="100" width="40" height="100" fill="#ccc" />
  
  <!-- Buildings on right side -->
  <rect x="420" y="100" width="55" height="110" fill="#bbb" />
  <rect x="475" y="100" width="40" height="90" fill="#ddd" />
  <rect x="515" y="100" width="50" height="120" fill="#ccc" />
  <rect x="565" y="100" width="45" height="80" fill="#aaa" />
  <rect x="610" y="100" width="40" height="100" fill="#bbb" />
  
  <!-- Market stalls -->
  <rect x="190" y="220" width="20" height="20" fill="#e74c3c" />
  <rect x="230" y="220" width="20" height="20" fill="#f1c40f" />
  <rect x="270" y="220" width="20" height="20" fill="#2ecc71" />
  <rect x="310" y="220" width="20" height="20" fill="#3498db" />
  <rect x="350" y="220" width="20" height="20" fill="#9b59b6" />
  <rect x="390" y="220" width="20" height="20" fill="#e67e22" />
  <rect x="430" y="220" width="20" height="20" fill="#f1c40f" />
  <rect x="470" y="220" width="20" height="20" fill="#1abc9c" />
  <rect x="510" y="220" width="20" height="20" fill="#e74c3c" />
  <rect x="550" y="220" width="20" height="20" fill="#3498db" />
  <rect x="590" y="220" width="20" height="20" fill="#2ecc71" />
  
  <!-- People (simplified) -->
  <circle cx="210" y="260" r="5" fill="#333" />
  <circle cx="290" y="270" r="5" fill="#333" />
  <circle cx="350" y="260" r="5" fill="#333" />
  <circle cx="410" y="270" r="5" fill="#333" />
  <circle cx="470" y="260" r="5" fill="#333" />
  <circle cx="530" y="270" r="5" fill="#333" />
  <circle cx="590" y="260" r="5" fill="#333" />
  
  <!-- Text -->
  <text x="400" y="350" font-family="Arial" font-size="24" text-anchor="middle" fill="white" font-weight="bold">
    COLABA CAUSEWAY
  </text>
  <text x="400" y="380" font-family="Arial" font-size="18" text-anchor="middle" fill="white">
    Bustling shopping street
  </text>
</svg> 