<?xml version="1.0" encoding="UTF-8" standalone="no"?>
<svg width="800" height="400" xmlns="http://www.w3.org/2000/svg">
  <defs>
    <linearGradient id="bgGradient" x1="0%" y1="0%" x2="100%" y2="100%">
      <stop offset="0%" style="stop-color:#2c3e50;stop-opacity:1" />
      <stop offset="100%" style="stop-color:#34495e;stop-opacity:1" />
    </linearGradient>
  </defs>
  <rect width="800" height="400" fill="url(#bgGradient)" />
  
  <!-- Taj Mahal Palace Hotel -->
  <rect x="250" y="150" width="300" height="200" fill="#c19a6b" />
  <path d="M350,60 A100,90 0 0,1 450,60 L450,150 L350,150 Z" fill="#c19a6b" />
  
  <!-- Windows -->
  <rect x="280" y="180" width="20" height="30" fill="#2c3e50" />
  <rect x="310" y="180" width="20" height="30" fill="#2c3e50" />
  <rect x="340" y="180" width="20" height="30" fill="#2c3e50" />
  <rect x="370" y="180" width="20" height="30" fill="#2c3e50" />
  <rect x="400" y="180" width="20" height="30" fill="#2c3e50" />
  <rect x="430" y="180" width="20" height="30" fill="#2c3e50" />
  <rect x="460" y="180" width="20" height="30" fill="#2c3e50" />
  <rect x="490" y="180" width="20" height="30" fill="#2c3e50" />
  
  <rect x="280" y="220" width="20" height="30" fill="#2c3e50" />
  <rect x="310" y="220" width="20" height="30" fill="#2c3e50" />
  <rect x="340" y="220" width="20" height="30" fill="#2c3e50" />
  <rect x="370" y="220" width="20" height="30" fill="#2c3e50" />
  <rect x="400" y="220" width="20" height="30" fill="#2c3e50" />
  <rect x="430" y="220" width="20" height="30" fill="#2c3e50" />
  <rect x="460" y="220" width="20" height="30" fill="#2c3e50" />
  <rect x="490" y="220" width="20" height="30" fill="#2c3e50" />
  
  <rect x="280" y="260" width="20" height="30" fill="#2c3e50" />
  <rect x="310" y="260" width="20" height="30" fill="#2c3e50" />
  <rect x="340" y="260" width="20" height="30" fill="#2c3e50" />
  <rect x="370" y="260" width="20" height="30" fill="#2c3e50" />
  <rect x="400" y="260" width="20" height="30" fill="#2c3e50" />
  <rect x="430" y="260" width="20" height="30" fill="#2c3e50" />
  <rect x="460" y="260" width="20" height="30" fill="#2c3e50" />
  <rect x="490" y="260" width="20" height="30" fill="#2c3e50" />
  
  <!-- Dome windows -->
  <path d="M370,70 A30,30 0 0,1 430,70 L430,90 L370,90 Z" fill="#2c3e50" />
  <path d="M380,100 A20,20 0 0,1 420,100 L420,110 L380,110 Z" fill="#2c3e50" />
  
  <!-- Sea in foreground -->
  <rect width="800" height="50" y="350" fill="#3498db" opacity="0.6" />
  
  <!-- Text -->
  <text x="400" y="380" font-family="Arial" font-size="24" text-anchor="middle" fill="white" font-weight="bold">
    TAJ MAHAL PALACE HOTEL
  </text>
</svg> 